<svg width="30" height="30" viewBox="0 0 30 30" fill="none" xmlns="http://www.w3.org/2000/svg">
<g clip-path="url(#clip0_122_139)">
<path d="M0 15C0 6.71575 6.71575 0 15 0C23.2843 0 30 6.71575 30 15C30 23.2843 23.2843 30 15 30C6.71575 30 0 23.2843 0 15Z" fill="#0C0C0C"/>
<mask id="mask0_122_139" style="mask-type:alpha" maskUnits="userSpaceOnUse" x="0" y="0" width="30" height="30">
<path fill-rule="evenodd" clip-rule="evenodd" d="M0 15C0 6.71575 6.71575 0 15 0C23.2843 0 30 6.71575 30 15C30 23.2843 23.2843 30 15 30C6.71575 30 0 23.2843 0 15Z" fill="white"/>
</mask>
<g mask="url(#mask0_122_139)">
<path fill-rule="evenodd" clip-rule="evenodd" d="M15.001 6.99988C12.8283 6.99988 12.5556 7.00938 11.7023 7.04819C10.8506 7.08719 10.2692 7.222 9.76062 7.41988C9.23443 7.62419 8.78812 7.8975 8.34343 8.34238C7.89843 8.787 7.62506 9.23338 7.42006 9.75938C7.22174 10.2682 7.08674 10.8497 7.04843 11.7011C7.01024 12.5544 7.00024 12.8273 7.00024 14.9999C7.00024 17.1726 7.00993 17.4444 7.04856 18.2978C7.08774 19.1495 7.22256 19.7308 7.42024 20.2395C7.62474 20.7656 7.89806 21.212 8.34293 21.6567C8.78743 22.1017 9.23374 22.3757 9.75962 22.58C10.2686 22.7778 10.8501 22.9127 11.7016 22.9517C12.555 22.9905 12.8275 23 15 23C17.1729 23 17.4447 22.9905 18.298 22.9517C19.1497 22.9127 19.7317 22.7778 20.2407 22.58C20.7667 22.3757 21.2124 22.1017 21.6569 21.6567C22.1019 21.212 22.3752 20.7656 22.5802 20.2396C22.7769 19.7308 22.9119 19.1493 22.9519 18.2979C22.9902 17.4446 23.0002 17.1726 23.0002 14.9999C23.0002 12.8273 22.9902 12.5546 22.9519 11.7013C22.9119 10.8496 22.7769 10.2682 22.5802 9.75957C22.3752 9.23338 22.1019 8.787 21.6569 8.34238C21.2119 7.89738 20.7669 7.624 20.2402 7.41988C19.7302 7.222 19.1486 7.08719 18.2969 7.04819C17.4435 7.00938 17.1719 6.99988 14.9985 6.99988H15.001ZM14.7342 8.44144H14.7344L15.001 8.4415C17.137 8.4415 17.3902 8.44919 18.2337 8.4875C19.0137 8.52319 19.4371 8.6535 19.7191 8.763C20.0924 8.908 20.3586 9.08138 20.6384 9.36138C20.9184 9.64138 21.0917 9.90807 21.2371 10.2814C21.3466 10.5631 21.4771 10.9864 21.5126 11.7664C21.5509 12.6098 21.5592 12.8631 21.5592 14.9981C21.5592 17.1331 21.5509 17.3864 21.5126 18.2298C21.4769 19.0098 21.3466 19.4331 21.2371 19.7148C21.0921 20.0881 20.9184 20.354 20.6384 20.6338C20.3584 20.9138 20.0926 21.0872 19.7191 21.2322C19.4374 21.3422 19.0137 21.4722 18.2337 21.5078C17.3904 21.5462 17.137 21.5545 15.001 21.5545C12.8648 21.5545 12.6116 21.5462 11.7683 21.5078C10.9883 21.4718 10.5649 21.3415 10.2828 21.232C9.90943 21.087 9.64274 20.9136 9.36274 20.6336C9.08274 20.3536 8.90943 20.0876 8.76412 19.7141C8.65462 19.4325 8.52412 19.0091 8.48862 18.2291C8.45024 17.3858 8.44262 17.1324 8.44262 14.9961C8.44262 12.8598 8.45024 12.6078 8.48862 11.7644C8.52424 10.9844 8.65462 10.5611 8.76412 10.2791C8.90912 9.90569 9.08274 9.63907 9.36274 9.35907C9.64274 9.07907 9.90943 8.90569 10.2828 8.76038C10.5648 8.65038 10.9883 8.52038 11.7683 8.4845C12.5063 8.45119 12.7923 8.44119 14.2833 8.4395V8.4415C14.4226 8.44132 14.5725 8.44138 14.7342 8.44144ZM18.3114 10.7296C18.3114 10.1994 18.7414 9.76988 19.2714 9.76988V9.76957C19.8014 9.76957 20.2314 10.1996 20.2314 10.7296C20.2314 11.2596 19.8014 11.6896 19.2714 11.6896C18.7414 11.6896 18.3114 11.2596 18.3114 10.7296ZM15.0008 10.8916C12.7321 10.8916 10.8926 12.7311 10.8926 14.9999C10.8926 17.2688 12.7321 19.1075 15.001 19.1075C17.2699 19.1075 19.1087 17.2688 19.1087 14.9999C19.1087 12.7311 17.2697 10.8916 15.0008 10.8916ZM17.6677 14.9999C17.6677 13.5271 16.4737 12.3333 15.001 12.3333C13.5281 12.3333 12.3343 13.5271 12.3343 14.9999C12.3343 16.4726 13.5281 17.6666 15.001 17.6666C16.4737 17.6666 17.6677 16.4726 17.6677 14.9999Z" fill="white"/>
</g>
</g>
<defs>
<clipPath id="clip0_122_139">
<rect width="30" height="30" fill="white"/>
</clipPath>
</defs>
</svg>
